# xmcd
#
# Track frame offsets: 
#        150
#        10887
#        20500
#        27414
#        36643
#        45967
#        58047
#        65176
#        73741
#        84420
#        100938
#        118502
#        130540
#        144441
#        155959
#        169352
#        184939
#        200070
#        207777
#        220794
#        230575
#
# Disc length: 3273 seconds
#
# Revision: 7
# Processed by: cddbd v1.5.2PL0 Copyright (c) Steve Scherf et al.
# Submitted via: ExactAudioCopy v0.99pb4
#
DISCID=3a0cc715
DTITLE=Frédéric Chopin - Etüden mit Transkriptionen von Leopold Godows
DTITLE=ky (Boris Berezovsky) [Warner 2564 62258-2]
DYEAR=2005
DGENRE=Classical
TTITLE0=Etüde Op.10 No.1 C-Dur
TTITLE1=Godowsky - Transkription Op.10 No.1 C-Dur 'Diatonisch'
TTITLE2=Etüde Op.10 No.2 a-moll
TTITLE3=Godowsky - 2te Transkription Op.10 No.2 a-moll 'Ignis Fatuus'
TTITLE4=Etüde Op.10 No.4 cis-moll
TTITLE5=Godowsky - Transkription Op.10 No.4 cis-moll für die linke Han
TTITLE5=d
TTITLE6=Etüde Op.10 No.5 Gis-Dur 'Black Keys'
TTITLE7=Godowsky - Transkription Op.10 No.5 C-Dur 'Study on White Keys
TTITLE7='
TTITLE8=Godowsky - Transkription Op.10 No.5 a-moll 'Tarantella'
TTITLE9=Etüde Op.10 No.6 es-moll
TTITLE10=Godowsky - Transkription Op.10 No.6 es-moll für die linke Han
TTITLE10=d
TTITLE11=Etüde Op.10 No.12 c-moll
TTITLE12=Godowsky - Transkription Op.10 No.12 cis-moll für die linke H
TTITLE12=and
TTITLE13=Etüde Op.25 No.1 As-Dur
TTITLE14=Godowsky - 2te Transkription Op.25 No.1 As-Dur
TTITLE15=Etüde Op.25 No.5 e-moll
TTITLE16=Godowsky - 2te Transkription Op.25 No.5 cis-moll 'Mazurka'
TTITLE17=Godowsky - Transkription Op.10 No.5 and Op.25 No.9 Ges-Dur vere
TTITLE17=int 'Badinage'
TTITLE18=Godowsky - Transkription Op.10 No.11 and Op.25 No.3 F-Dur verei
TTITLE18=nt
TTITLE19=Godowsky - Triakontameron No.11 'Alt-Wien'
TTITLE20=Godowsky - Transkription Waltzer Op.64 No.1 Des-Dur 'Minute'
EXTD=YEAR: 2005
EXTT0=
EXTT1=
EXTT2=
EXTT3=
EXTT4=
EXTT5=
EXTT6=
EXTT7=
EXTT8=
EXTT9=
EXTT10=
EXTT11=
EXTT12=
EXTT13=
EXTT14=
EXTT15=
EXTT16=
EXTT17=
EXTT18=
EXTT19=
EXTT20=
PLAYORDER=
